<svg width="15" height="16" viewBox="0 0 15 16" fill="none" xmlns="http://www.w3.org/2000/svg">
<path d="M7.50146 15.5339C5.45146 15.5339 5.2098 15.5231 4.4098 15.4881C3.78594 15.4676 3.17016 15.3407 2.58896 15.1131C1.58339 14.7217 0.788249 13.9263 0.397298 12.9206C0.178387 12.3373 0.0603131 11.721 0.0481315 11.0981C0.00146484 10.2997 0.00146484 10.0381 0.00146484 8.00391C0.00146484 5.94807 0.0122982 5.70807 0.0481315 4.91224C0.0605795 4.29017 0.178649 3.67475 0.397298 3.09224C0.787824 2.08518 1.58426 1.28905 2.59146 0.898906C3.17367 0.679075 3.78925 0.560693 4.41146 0.548906C5.2073 0.503906 5.46896 0.503906 7.50146 0.503906C9.56813 0.503906 9.80563 0.51474 10.5931 0.548906C11.217 0.560795 11.8342 0.679164 12.4181 0.898906C13.4251 1.28949 14.2213 2.08547 14.6123 3.09224C14.8349 3.68323 14.9536 4.30828 14.9631 4.93974C15.0098 5.73807 15.0098 5.99891 15.0098 8.03224C15.0098 10.0656 14.9981 10.3322 14.9631 11.1214C14.9507 11.7449 14.8324 12.3618 14.6131 12.9456C14.2212 13.952 13.4248 14.7477 12.4181 15.1389C11.835 15.3574 11.2191 15.4755 10.5965 15.4881C9.80063 15.5339 9.5398 15.5339 7.50146 15.5339ZM7.47313 1.82307C5.4348 1.82307 5.22313 1.83307 4.4273 1.86891C3.95229 1.8752 3.48186 1.96286 3.03646 2.12807C2.37876 2.37975 1.85832 2.89807 1.60396 3.55474C1.43748 4.00499 1.3498 4.48055 1.3448 4.96057C1.30063 5.76807 1.30063 5.97974 1.30063 8.00391C1.30063 10.0039 1.30813 10.2464 1.3448 11.0489C1.35226 11.5241 1.43988 11.9946 1.60396 12.4406C1.85869 13.0968 2.37904 13.6147 3.03646 13.8664C3.48156 14.0327 3.95217 14.1204 4.4273 14.1256C5.23397 14.1722 5.44647 14.1722 7.47313 14.1722C9.5173 14.1722 9.72896 14.1622 10.5181 14.1256C10.9935 14.1198 11.4642 14.0321 11.9098 13.8664C12.5635 13.6126 13.0806 13.0958 13.3348 12.4422C13.501 11.9916 13.5886 11.5158 13.594 11.0356H13.6031C13.639 10.2389 13.639 10.0264 13.639 7.99057C13.639 5.95474 13.6298 5.74057 13.594 4.94474C13.5865 4.47012 13.4989 4.00017 13.3348 3.55474C13.0812 2.90022 12.564 2.38248 11.9098 2.12807C11.4643 1.96202 10.9935 1.87434 10.5181 1.86891C9.7123 1.82307 9.50147 1.82307 7.47313 1.82307ZM7.50146 11.8531C5.94312 11.8541 4.53765 10.9162 3.94052 9.47679C3.34339 8.03739 3.67222 6.38002 4.77366 5.27762C5.8751 4.17523 7.53218 3.84496 8.9721 4.44085C10.412 5.03673 11.3511 6.4414 11.3515 7.99974C11.3492 10.1256 9.62735 11.8489 7.50146 11.8531ZM7.50146 5.49807C6.12075 5.49807 5.00146 6.61736 5.00146 7.99807C5.00146 9.37878 6.12075 10.4981 7.50146 10.4981C8.88218 10.4981 10.0015 9.37878 10.0015 7.99807C9.99826 6.61869 8.88085 5.50128 7.50146 5.49807ZM11.5015 4.90391C11.006 4.90207 10.6055 4.4994 10.6065 4.00391C10.6074 3.50843 11.0093 3.10725 11.5048 3.10725C12.0003 3.10725 12.4022 3.50842 12.4031 4.00391C12.4034 4.24296 12.3084 4.47226 12.1392 4.64114C11.97 4.81002 11.7405 4.90457 11.5015 4.90391Z" fill="#9A41FE"/>
</svg>
