<svg width="18" height="15" viewBox="0 0 18 15" fill="none" xmlns="http://www.w3.org/2000/svg">
<path d="M15.496 2.57349C16.243 2.12689 16.802 1.42368 17.0685 0.595153C16.3666 1.01166 15.5985 1.30505 14.7977 1.46265C13.6873 0.288093 11.9281 0.00225829 10.503 0.764867C9.07791 1.52747 8.33976 3.14973 8.70101 4.72515C5.82568 4.5808 3.14681 3.22258 1.33101 0.988487C0.383376 2.623 0.867636 4.71247 2.43768 5.76349C1.86993 5.74523 1.31478 5.59152 0.818509 5.31515C0.818509 5.33015 0.818509 5.34515 0.818509 5.36015C0.818837 7.06278 2.01882 8.52939 3.68768 8.86682C3.16106 9.01009 2.60868 9.03118 2.07268 8.92849C2.54201 10.3845 3.88397 11.3821 5.41351 11.4118C4.1467 12.4061 2.58224 12.9453 0.971842 12.9427C0.686401 12.9431 0.401184 12.9266 0.117676 12.8935C1.753 13.9443 3.65632 14.5021 5.60018 14.5002C8.30455 14.5187 10.9035 13.4526 12.8158 11.5402C14.728 9.62776 15.794 7.02869 15.7752 4.32432C15.7752 4.16932 15.7716 4.01515 15.7643 3.86182C16.4647 3.35565 17.0692 2.72861 17.5493 2.01015C16.8969 2.29937 16.2047 2.48926 15.496 2.57349Z" fill="#9A41FE"/>
</svg>
