<svg width="16" height="16" viewBox="0 0 16 16" fill="none" xmlns="http://www.w3.org/2000/svg">
<path d="M9.00033 15.5H5.66699V5.5H9.00033V7.16667C9.71085 6.26271 10.7884 5.72381 11.9378 5.6975C14.005 5.70898 15.673 7.39115 15.667 9.45833V15.5H12.3337V9.875C12.2004 8.94386 11.4018 8.25298 10.4612 8.255C10.0497 8.26801 9.66136 8.44815 9.38569 8.75385C9.11002 9.05956 8.97086 9.46441 9.00033 9.875V15.5ZM4.00033 15.5H0.666992V5.5H4.00033V15.5ZM2.33366 3.83333C1.41318 3.83333 0.666992 3.08714 0.666992 2.16667C0.666992 1.24619 1.41318 0.5 2.33366 0.5C3.25413 0.5 4.00033 1.24619 4.00033 2.16667C4.00033 2.60869 3.82473 3.03262 3.51217 3.34518C3.19961 3.65774 2.77569 3.83333 2.33366 3.83333Z" fill="#9A41FE"/>
</svg>
