<svg width="17" height="17" viewBox="0 0 17 17" fill="none" xmlns="http://www.w3.org/2000/svg">
<path d="M0 8.33219C0.000969617 12.4317 2.982 15.9222 7.03083 16.5647V10.7405H4.91667V8.33219H7.03333V6.49886C6.93871 5.63014 7.23543 4.76435 7.84303 4.1363C8.45063 3.50825 9.30613 3.18303 10.1775 3.24886C10.8029 3.25896 11.4268 3.31466 12.0442 3.41552V5.46469H10.9908C10.6282 5.41719 10.2636 5.53696 9.99981 5.79024C9.73599 6.04353 9.60148 6.40293 9.63417 6.76719V8.33219H11.9433L11.5742 10.7414H9.63417V16.5647C14.0129 15.8727 17.0834 11.8737 16.6213 7.46475C16.1591 3.05583 12.3261 -0.219537 7.89902 0.011504C3.47197 0.242545 0.000703731 3.89911 0 8.33219Z" fill="#9A41FE"/>
</svg>
